<?xml version="1.0" encoding="iso-8859-1"?>
<!-- Generator: Adobe Illustrator 19.0.0, SVG Export Plug-In . SVG Version: 6.00 Build 0)  -->
<svg version="1.1" id="Capa_1" xmlns="http://www.w3.org/2000/svg" xmlns:xlink="http://www.w3.org/1999/xlink" x="0px" y="0px"
	 viewBox="0 0 512 512" style="enable-background:new 0 0 512 512;" xml:space="preserve">
<g>
	<path style="fill:#C7CFE2;" d="M504,98.579c-4.36,0-8-3.534-8-7.893V47.932C496,31.66,482.976,18,466.704,18h-42.755
		c-4.36,0-7.893-3.141-7.893-7.5S419.59,3,423.949,3h42.755C491.68,3,512,22.956,512,47.932v42.755
		C512,95.045,508.36,98.579,504,98.579z"/>
	<path style="fill:#C7CFE2;" d="M8,98.579c-4.36,0-8-3.534-8-7.893V47.932C0,22.956,20.32,3,45.296,3h42.755
		c4.36,0,7.893,3.141,7.893,7.5S92.41,18,88.051,18H45.296C29.024,18,16,31.66,16,47.932v42.755C16,95.045,12.36,98.579,8,98.579z"
		/>
	<path style="fill:#C7CFE2;" d="M466.704,509h-42.755c-4.36,0-7.893-3.141-7.893-7.5s3.533-7.5,7.893-7.5h42.755
		C482.976,494,496,480.34,496,464.068v-42.755c0-4.359,3.64-7.893,8-7.893s8,3.534,8,7.893v42.755
		C512,489.044,491.68,509,466.704,509z"/>
	<path style="fill:#C7CFE2;" d="M88.051,509H45.296C20.32,509,0,489.044,0,464.068v-42.755c0-4.359,3.64-7.893,8-7.893
		s8,3.534,8,7.893v42.755C16,480.34,29.024,494,45.296,494h42.755c4.36,0,7.893,3.141,7.893,7.5S92.41,509,88.051,509z"/>
</g>
<circle style="fill:#0094E3;" cx="258.61" cy="183.95" r="57.864"/>
<path style="fill:#007BCE;" d="M258.613,126.085c-6.897,0-13.511,1.212-19.645,3.426c22.287,8.044,38.22,29.378,38.22,54.438
	s-15.933,46.394-38.22,54.438c6.134,2.214,12.747,3.426,19.645,3.426c31.957,0,57.864-25.907,57.864-57.864
	S290.571,126.085,258.613,126.085z"/>
<path style="fill:#6CC9F1;" d="M375.923,386H136.077c-4.281,0-8.077-3.556-8.077-7.837v-37.315C128,302.676,159.271,272,197.444,272
	h117.112C352.729,272,384,302.676,384,340.849v37.315C384,382.444,380.204,386,375.923,386z"/>
<path style="fill:#67BAE8;" d="M314.556,272h-35.781C316.948,272,348,302.676,348,340.849v37.315c0,4.281-3.577,7.837-7.858,7.837
	h35.781c4.281,0,8.077-3.556,8.077-7.837v-37.315C384,302.676,352.729,272,314.556,272z"/>
<g>
	<rect x="175" y="343" style="fill:#0094E3;" width="16" height="43"/>
	<rect x="321" y="343" style="fill:#0094E3;" width="16" height="43"/>
</g>
<g>
</g>
<g>
</g>
<g>
</g>
<g>
</g>
<g>
</g>
<g>
</g>
<g>
</g>
<g>
</g>
<g>
</g>
<g>
</g>
<g>
</g>
<g>
</g>
<g>
</g>
<g>
</g>
<g>
</g>
</svg>
