<svg id="Capa_1" enable-background="new 0 0 495.467 495.467" height="512" viewBox="0 0 495.467 495.467" width="512" xmlns="http://www.w3.org/2000/svg"><g><g><g><path d="m349.898 41.744c-.433-.02-.868-.029-1.306-.029h-8.685c-1.567 0-2.837-1.27-2.837-2.837-.001-21.472-17.407-38.878-38.878-38.878h-165.598c-7.875 0-14.258 6.383-14.258 14.258v48.263c0 42.156 34.175 76.331 76.331 76.331l53.171 23.048 103.005 3.447 22.442-85.845c7.185-17.274-4.698-36.916-23.387-37.758z" fill="#a59da7"/></g></g><g><g><path d="m323.52 133.106h35.751l14.013-53.604c7.186-17.273-4.697-36.916-23.387-37.758-.433-.02-.868-.029-1.306-.029h-3.7c.989 5.087.574 10.545-1.607 15.787z" fill="#968d97"/></g></g><g><g><ellipse cx="341.087" cy="151.115" fill="#ffcdbe" rx="27.143" ry="27.143" transform="matrix(.707 -.707 .707 .707 -6.953 285.445)"/></g></g><g><g><path d="m396.226 335.543-52.019-19.507-91.612-9.66-101.335 9.66-52.019 19.507c-30.297 11.361-50.368 40.324-50.368 72.681v79.421c0 4.32 3.502 7.822 7.822 7.822h382.078c4.32 0 7.822-3.502 7.822-7.822v-79.421c-.001-32.357-20.072-61.319-50.369-72.681z" fill="#80b6fc"/></g></g><g><g><path d="m396.226 335.543-52.019-19.507-16.257-2.472 6.211 9.925 32.065 12.055c30.297 11.361 50.368 40.324 50.368 72.681v79.421c0 4.32-3.502 7.822-7.822 7.822h30c4.32 0 7.822-3.502 7.822-7.822v-79.421c0-32.358-20.071-61.32-50.368-72.682z" fill="#62a4fb"/></g></g><g><g><path d="m344.207 316.036-41.447-15.543c-5.391-2.022-8.963-7.176-8.963-12.934v-81.264h-92.127v81.264c0 5.758-3.572 10.913-8.964 12.934l-41.447 15.543 22.533 16.716c43.912 32.576 103.97 32.576 147.881 0z" fill="#ffcdbe"/></g></g><path d="m281.027 300.494 53.135 22.995 10.046-7.453-41.447-15.543c-5.391-2.022-8.963-7.176-8.963-12.934v-81.264h-21.734v81.264c-.001 5.759 3.571 10.913 8.963 12.935z" fill="#f5c1b3"/><g><g><path d="m158.398 103.421v70.372c0 20.41 6.844 39.221 18.363 54.264 16.326 21.321 42.043 15.071 70.972 15.071 28.928 0 54.646 6.25 70.972-15.071 11.519-15.043 18.363-33.854 18.363-54.264v-70.372c0-19.803-16.054-35.857-35.857-35.857h-106.956c-19.803.001-35.857 16.054-35.857 35.857z" fill="#ffcdbe"/></g></g><g><g><path d="m301.212 67.565h-30c19.803 0 35.857 16.053 35.857 35.857v70.372c0 44.226-32.14 80.94-74.335 88.075 4.878.825 9.887 1.26 15 1.26 49.338 0 89.335-39.997 89.335-89.335v-70.372c0-19.804-16.054-35.857-35.857-35.857z" fill="#f5c1b3"/></g></g><g><g><ellipse cx="153.26" cy="151.115" fill="#ffcdbe" rx="27.143" ry="27.143" transform="matrix(.924 -.383 .383 .924 -46.163 70.153)"/></g></g><g><g><path d="m199.57 172.846c-1.824 0-3.652-.661-5.096-1.999l-41.173-38.153c-3.038-2.815-3.219-7.561-.403-10.599 2.814-3.038 7.56-3.219 10.599-.403l41.173 38.153c3.038 2.815 3.219 7.561.403 10.599-1.478 1.595-3.487 2.402-5.503 2.402z" fill="#edf6ff"/></g></g><g><g><path d="m295.897 172.846c-2.016 0-4.025-.807-5.503-2.402-2.815-3.038-2.635-7.783.403-10.599l41.174-38.153c3.039-2.816 7.784-2.634 10.599.403 2.815 3.038 2.635 7.783-.403 10.599l-41.174 38.153c-1.444 1.338-3.273 1.999-5.096 1.999z" fill="#edf6ff"/></g></g><g><g><path d="m138.336 389.74c-4.142 0-7.5-3.358-7.5-7.5v-58.857c0-4.142 3.358-7.5 7.5-7.5s7.5 3.358 7.5 7.5v58.857c0 4.142-3.358 7.5-7.5 7.5z" fill="#bed9fd"/></g></g><ellipse cx="138.336" cy="408.489" fill="#f7f6f6" rx="29.749" ry="29.749" transform="matrix(.998 -.062 .062 .998 -25.115 9.385)"/><ellipse cx="138.336" cy="408.489" fill="#d4cfd5" rx="14.924" ry="14.924" transform="matrix(.997 -.083 .083 .997 -33.221 12.802)"/><path d="m370.729 373.496v-49.113c0-4.142-3.357-7.5-7.5-7.5s-7.5 3.358-7.5 7.5v49.048c-18.718 1.258-33.564 16.877-33.564 35.909v59.399c0 4.142 3.357 7.5 7.5 7.5h11.422c4.143 0 7.5-3.358 7.5-7.5s-3.357-7.5-7.5-7.5h-3.922v-51.899c0-11.58 9.421-21 21-21h9.275c11.579 0 21 9.421 21 21v51.899h-3.883c-4.143 0-7.5 3.358-7.5 7.5s3.357 7.5 7.5 7.5h11.383c4.143 0 7.5-3.358 7.5-7.5v-59.399c0-18.742-14.397-34.177-32.711-35.844z" fill="#bed9fd"/><g><g><path d="m247.733 263.128c28.929 0 54.641-13.754 70.967-35.075-.101-39.143-18.546-80.201-70.967-80.201s-70.866 41.058-70.967 80.201c16.327 21.321 42.039 35.075 70.967 35.075z" fill="#bed9fd"/></g></g><path d="m247.734 147.852c-5.35 0-10.341.434-15 1.244 33.104 5.753 49.183 30.789 54.191 58.725 2.382 13.288-2.548 26.962-13.043 35.452-11.655 9.429-25.73 15.984-41.148 18.592 4.878.825 9.887 1.263 15 1.263 28.928 0 54.64-13.754 70.967-35.075-.102-39.143-18.547-80.201-70.967-80.201z" fill="#9ec8fc"/></g></svg>