<svg id="Capa_1" enable-background="new 0 0 512 512" height="512" viewBox="0 0 512 512" width="512" xmlns="http://www.w3.org/2000/svg"><g><path d="m240.913 72.012h30.174v86.515h-30.174z" fill="#faf7f7"/><path d="m256 72.012h15.087v86.515h-15.087z" fill="#f3eae6"/><path d="m285.871 198.492h-59.742v-40.962c0-2.838 2.3-5.138 5.138-5.138h49.466c2.838 0 5.138 2.3 5.138 5.138z" fill="#b3dafe"/><path d="m285.867 157.529v31.216h-20.598v-31.216c0-2.832-2.297-5.139-5.129-5.139h20.598c2.832-.001 5.129 2.306 5.129 5.139z" fill="#8ac9fe"/><circle cx="121.472" cy="350.949" fill="#cdbfba" r="121.472"/><circle cx="390.528" cy="350.949" fill="#cdbfba" r="121.472"/><path d="m242.941 350.952c0 67.087-54.378 121.465-121.465 121.465-32.565 0-62.143-12.812-83.956-33.677 19.043 12.42 41.793 19.63 66.222 19.63 67.087 0 121.475-54.388 121.475-121.475 0-34.522-14.398-65.676-37.519-87.788 33.255 21.658 55.243 59.187 55.243 101.845z" fill="#b9acac"/><path d="m511.999 350.952c0 67.087-54.388 121.465-121.475 121.465-32.575 0-62.164-12.822-83.977-33.698 19.053 12.431 41.813 19.65 66.253 19.65 67.087 0 121.475-54.388 121.475-121.475 0-34.511-14.387-65.655-37.498-87.767 33.244 21.669 55.222 59.177 55.222 101.825z" fill="#b9acac"/><path d="m63.295 188.739h385.409v40.737h-385.409z" fill="#594f4f"/><path d="m70.28 487.687c0 8.682 8.107 15.081 16.55 13.061 37.531-8.98 147.464-41.473 156.114-148.648v-113.002c0-5.314-4.307-9.621-9.621-9.621h-163.043z" fill="#766e6e"/><path d="m242.941 239.096v112.999c-8.651 107.18-118.581 139.673-156.11 148.654-4.14.989-8.198-.041-11.257-2.379 43.739-11.761 138.746-46.942 146.769-146.275v-112.999c0-5.314-4.305-9.619-9.619-9.619h20.598c5.314-.001 9.619 4.304 9.619 9.619z" fill="#5b5555"/><circle cx="70.28" cy="227.141" fill="#b3dafe" r="40.737"/><path d="m441.72 487.687c0 8.682-8.107 15.081-16.55 13.061-37.531-8.98-147.464-41.473-156.114-148.648v-113.002c0-5.314 4.307-9.621 9.621-9.621h163.043z" fill="#766e6e"/><path d="m441.719 229.476v258.214c0 8.682-8.105 15.078-16.55 13.059-2.75-.659-5.881-1.442-9.341-2.379 3.182-2.431 5.294-6.251 5.294-10.68v-258.214z" fill="#5b5555"/><circle cx="441.72" cy="227.141" fill="#b3dafe" r="40.737"/><path d="m111.013 227.139c0 22.503-18.229 40.742-40.732 40.742-12.359 0-23.43-5.499-30.897-14.192 4.861 2.049 10.206 3.182 15.809 3.182 22.503 0 40.742-18.239 40.742-40.742 0-10.134-3.697-19.403-9.825-26.53 14.635 6.169 24.903 20.66 24.903 37.54z" fill="#8ac9fe"/><path d="m482.462 227.139c0 22.503-18.239 40.742-40.742 40.742-12.369 0-23.44-5.51-30.907-14.202 4.861 2.06 10.206 3.193 15.819 3.193 22.503 0 40.742-18.239 40.742-40.742 0-10.134-3.697-19.403-9.825-26.53 14.634 6.168 24.913 20.659 24.913 37.539z" fill="#8ac9fe"/><circle cx="441.72" cy="227.141" fill="#60b7ff" r="16.403"/><circle cx="362.739" cy="358.629" fill="#594f4f" r="51.408"/><circle cx="149.261" cy="358.629" fill="#594f4f" r="51.408"/><path d="m414.149 358.624c0 28.394-23.018 51.412-51.412 51.412-16.458 0-31.103-7.734-40.505-19.764 7.498 4.274 16.169 6.715 25.418 6.715 28.394 0 51.412-23.008 51.412-51.402 0-11.936-4.068-22.915-10.886-31.638 15.52 8.847 25.973 25.542 25.973 44.677z" fill="#443c3c"/><path d="m200.664 358.624c0 28.394-23.008 51.412-51.402 51.412-16.458 0-31.113-7.734-40.516-19.764 7.498 4.274 16.18 6.715 25.428 6.715 28.394 0 51.412-23.008 51.412-51.402 0-11.936-4.068-22.915-10.886-31.638 15.511 8.858 25.964 25.552 25.964 44.677z" fill="#443c3c"/><circle cx="362.739" cy="358.629" fill="#b3dafe" r="21.736"/><circle cx="149.261" cy="358.629" fill="#b3dafe" r="21.736"/><path d="m384.478 358.624c0 12.008-9.732 21.741-21.741 21.741-8.538 0-15.932-4.933-19.475-12.101.968.134 1.957.206 2.966.206 12.009 0 21.741-9.732 21.741-21.731 0-3.46-.803-6.735-2.255-9.64 10.597 1.442 18.764 10.536 18.764 21.525z" fill="#8ac9fe"/><path d="m170.993 358.624c0 12.008-9.732 21.741-21.731 21.741-8.548 0-15.943-4.933-19.485-12.101.978.134 1.967.206 2.976.206 12.008 0 21.741-9.732 21.741-21.731 0-3.46-.803-6.735-2.255-9.64 10.587 1.453 18.754 10.536 18.754 21.525z" fill="#8ac9fe"/><path d="m384.381 47.943h-43.001v-29.855c0-3.98 3.227-7.207 7.207-7.207h28.587c3.98 0 7.207 3.227 7.207 7.207z" fill="#766e6e"/><path d="m378.684 77.685h-145.495c-3.146 0-5.697-2.551-5.697-5.697v-21.503c0-3.146 2.551-5.697 5.697-5.697h151.192v27.199c0 3.147-2.551 5.698-5.697 5.698z" fill="#b3dafe"/><path d="m384.384 18.086v26.705h-21.504v-26.705c0-3.975-3.224-7.209-7.209-7.209h21.504c3.976 0 7.209 3.234 7.209 7.209z" fill="#5b5555"/><path d="m384.384 44.791v27.199c0 3.141-2.554 5.695-5.706 5.695h-21.494c3.141 0 5.695-2.554 5.695-5.695v-27.199z" fill="#8ac9fe"/><circle cx="70.28" cy="227.141" fill="#60b7ff" r="16.403"/><path d="m256 325.001c-24.512 0-44.382-19.871-44.382-44.382v-91.88h88.765v91.88c-.001 24.512-19.871 44.382-44.383 44.382z" fill="#cdbfba"/><path d="m300.378 188.745v91.876c0 24.511-19.867 44.378-44.378 44.378-3.038 0-6.004-.309-8.867-.896 20.258-4.099 35.521-22.009 35.521-43.482v-91.876z" fill="#b9acac"/><circle cx="256" cy="258.81" fill="#594f4f" r="17.73"/></g></svg>