<?xml version="1.0"?>
<svg xmlns="http://www.w3.org/2000/svg" xmlns:xlink="http://www.w3.org/1999/xlink" xmlns:svgjs="http://svgjs.com/svgjs" version="1.1" width="512" height="512" x="0" y="0" viewBox="0 0 512 512" style="enable-background:new 0 0 512 512" xml:space="preserve" class=""><g>
<path xmlns="http://www.w3.org/2000/svg" style="" d="M96,117.333h362.667c29.455,0,53.333,23.878,53.333,53.333V384c0,29.455-23.878,53.333-53.333,53.333  H96c-29.455,0-53.333-23.878-53.333-53.333V170.667C42.667,141.211,66.545,117.333,96,117.333z" fill="#9dc88d" data-original="#90a4ae" class=""/>
<g xmlns="http://www.w3.org/2000/svg">
	<path style="" d="M53.333,74.667H416c29.455,0,53.333,23.878,53.333,53.333v213.333   c0,29.455-23.878,53.333-53.333,53.333H53.333C23.878,394.667,0,370.789,0,341.333V128C0,98.545,23.878,74.667,53.333,74.667z" fill="#164a41" data-original="#cfd8dc" class=""/>
	<circle style="" cx="160" cy="234.667" r="106.667" fill="#164a41" data-original="#cfd8dc" class=""/>
</g>
<g xmlns="http://www.w3.org/2000/svg">
	<path style="" d="M160,352c-64.801,0-117.333-52.532-117.333-117.333S95.199,117.333,160,117.333   s117.333,52.532,117.333,117.333C277.263,299.439,224.772,351.929,160,352z M160,138.667c-53.019,0-96,42.981-96,96   s42.981,96,96,96s96-42.981,96-96S213.019,138.667,160,138.667z" fill="#c1ea00" data-original="#2196f3" class=""/>
	<circle style="" cx="160" cy="213.333" r="42.667" fill="#c1ea00" data-original="#2196f3" class=""/>
	<path style="" d="M160,341.333c28.264,0.032,55.377-11.191,75.349-31.189c-14-41.62-59.089-64.011-100.71-50.01   c-23.575,7.93-42.08,26.436-50.01,50.01C104.607,330.147,131.729,341.371,160,341.333z" fill="#c1ea00" data-original="#2196f3" class=""/>
</g>
<g xmlns="http://www.w3.org/2000/svg">
	<path style="" d="M416,181.333H309.333c-5.891,0-10.667-4.776-10.667-10.667S303.442,160,309.333,160H416   c5.891,0,10.667,4.776,10.667,10.667S421.891,181.333,416,181.333z" fill="#9dc88d" data-original="#90a4ae" class=""/>
	<path style="" d="M416,245.333H309.333c-5.891,0-10.667-4.776-10.667-10.667S303.442,224,309.333,224H416   c5.891,0,10.667,4.776,10.667,10.667S421.891,245.333,416,245.333z" fill="#9dc88d" data-original="#90a4ae" class=""/>
	<path style="" d="M416,309.333H309.333c-5.891,0-10.667-4.776-10.667-10.667c0-5.891,4.776-10.667,10.667-10.667H416   c5.891,0,10.667,4.776,10.667,10.667C426.667,304.558,421.891,309.333,416,309.333z" fill="#9dc88d" data-original="#90a4ae" class=""/>
</g>
<g xmlns="http://www.w3.org/2000/svg">
</g>
<g xmlns="http://www.w3.org/2000/svg">
</g>
<g xmlns="http://www.w3.org/2000/svg">
</g>
<g xmlns="http://www.w3.org/2000/svg">
</g>
<g xmlns="http://www.w3.org/2000/svg">
</g>
<g xmlns="http://www.w3.org/2000/svg">
</g>
<g xmlns="http://www.w3.org/2000/svg">
</g>
<g xmlns="http://www.w3.org/2000/svg">
</g>
<g xmlns="http://www.w3.org/2000/svg">
</g>
<g xmlns="http://www.w3.org/2000/svg">
</g>
<g xmlns="http://www.w3.org/2000/svg">
</g>
<g xmlns="http://www.w3.org/2000/svg">
</g>
<g xmlns="http://www.w3.org/2000/svg">
</g>
<g xmlns="http://www.w3.org/2000/svg">
</g>
<g xmlns="http://www.w3.org/2000/svg">
</g>
</g></svg>
