<?xml version="1.0" encoding="iso-8859-1"?>
<!-- Generator: Adobe Illustrator 19.0.0, SVG Export Plug-In . SVG Version: 6.00 Build 0)  -->
<svg version="1.1" id="Capa_1" xmlns="http://www.w3.org/2000/svg" xmlns:xlink="http://www.w3.org/1999/xlink" x="0px" y="0px"
	 viewBox="0 0 512 512" style="enable-background:new 0 0 512 512;" xml:space="preserve">
<path style="fill:#47545E;" d="M263.607,464.37v-39.783c0-4.204-3.408-7.612-7.612-7.612c-4.204,0-7.612,3.408-7.612,7.612v39.784
	c-9.751,3.207-16.813,12.394-16.813,23.204c0,13.468,10.958,24.425,24.426,24.425c13.468,0,24.425-10.957,24.425-24.425
	C280.421,476.764,273.358,467.577,263.607,464.37z M255.996,496.776c-5.074,0-9.202-4.128-9.202-9.201
	c0-5.074,4.128-9.201,9.202-9.201c5.073,0,9.201,4.128,9.201,9.201S261.069,496.776,255.996,496.776z"/>
<path style="fill:#E2E2E2;" d="M86.497,418.76c0,7.773,6.303,14.075,14.076,14.075h310.844c7.774,0,14.076-6.303,14.076-14.075
	V45.613H86.497V418.76z"/>
<path style="fill:#47545E;" d="M448.367,31.538c0,7.774-6.303,14.075-14.076,14.075H77.7c-7.773,0-14.076-6.301-14.076-14.075
	V14.075C63.623,6.302,69.926,0,77.7,0h356.591c7.773,0,14.076,6.302,14.076,14.075V31.538z"/>
<path style="fill:#333E48;" d="M434.291,22.781H77.7c-6.855,0-12.559-4.902-13.813-11.391c-0.168,0.87-0.263,1.766-0.263,2.685
	v17.463c0,7.774,6.303,14.075,14.076,14.075h356.591c7.773,0,14.076-6.301,14.076-14.075c0-19.102,0.088-18.334-0.263-20.147
	C446.85,17.88,441.145,22.781,434.291,22.781z"/>
<path style="fill:#D1D3D3;" d="M106.796,418.76V45.613H86.497V418.76c0,7.773,6.303,14.075,14.076,14.075h20.299
	C113.098,432.836,106.796,426.533,106.796,418.76z"/>
<g>
	<path style="fill:#47545E;" d="M280.799,156.189v12.714h-51.804V94.299h50.857v12.714h-36.357v17.968h31.418v11.769h-31.418v19.439
		H280.799z"/>
	<path style="fill:#47545E;" d="M183.729,257.628V202.83h37.201v11.114h-24.543v11.808h20.221v10.265h-20.221v21.61L183.729,257.628
		L183.729,257.628z"/>
	<path style="fill:#47545E;" d="M296.337,257.628V202.83c25.385,0,26.364-0.473,30.602,1.621
		c10.961,5.416,14.434,19.914,5.866,29.792c-6.078,7.005-13.051,5.711-23.81,5.711v17.675h-12.658V257.628z M308.994,228.917
		c11.026,0,12.108,0.564,14.201-1.93c2.821-3.357,2.394-13.043-4.322-13.043h-9.879V228.917z"/>
	<path style="fill:#47545E;" d="M183.034,317.035h-10.006v26.485h-9.564v-26.485H153.41v-8.338h29.624V317.035z"/>
	<path style="fill:#47545E;" d="M326.673,336.408l16.283-19.373h-15.548v-8.338h26.583v7.112l-15.303,19.373h15.597v8.338h-27.613
		v-7.112H326.673z"/>
	<path style="fill:#47545E;" d="M249.076,342.293c-17.183-8.069-11.774-33.792,7.406-33.792c18.568,0,24.671,25.839,6.94,33.842
		C258.987,344.342,253.343,344.298,249.076,342.293z M250.352,332.484c2.981,3.881,9.252,3.786,12.089-0.073
		c2.463-3.345,2.61-9.282-0.098-12.654c-3.465-4.307-11.516-3.909-13.488,3.041C247.942,326.012,248.34,329.872,250.352,332.484z"/>
</g>
<path style="fill:#7EC16B;" d="M356.092,289.215H155.901c-4.204,0-7.612-3.408-7.612-7.612s3.408-7.612,7.612-7.612h200.191
	c4.204,0,7.612,3.408,7.612,7.612C363.703,285.807,360.295,289.215,356.092,289.215z"/>
<path style="fill:#FF5959;" d="M356.092,379.926H155.901c-4.204,0-7.612-3.408-7.612-7.612s3.408-7.612,7.612-7.612h200.191
	c4.204,0,7.612,3.408,7.612,7.612C363.703,376.518,360.295,379.926,356.092,379.926z"/>
<g>
</g>
<g>
</g>
<g>
</g>
<g>
</g>
<g>
</g>
<g>
</g>
<g>
</g>
<g>
</g>
<g>
</g>
<g>
</g>
<g>
</g>
<g>
</g>
<g>
</g>
<g>
</g>
<g>
</g>
</svg>
