<svg height="512" viewBox="0 0 64 64" width="512" xmlns="http://www.w3.org/2000/svg"><g id="Lunch_product" data-name="Lunch product"><path d="m32 61 22-8v-27l-22 7z" fill="#c49a6c"/><path d="m32 61-22-8v-27l22 7z" fill="#a97c50"/><path d="m10 26 22 7v-14z" fill="#563311"/><path d="m32 19v14l22-7z" fill="#603913"/><path d="m3 34 22 7 7-8-22-7z" fill="#8b5e3c"/><path d="m25 41-15-4.773v2l14.376 4.573a1 1 0 0 0 1.055-.294l6.569-7.506v-2z" fill="#7f5637"/><path d="m39 41 15-4.773v2l-14.376 4.573a1 1 0 0 1 -1.055-.294l-6.569-7.506v-2z" fill="#9b7249"/><path d="m39 41 22-7-7-8-22 7z" fill="#a97c50"/><path d="m25 11-22 7 7 8 22-7z" fill="#754c29"/><path d="m39 11-7 8 22 7 7-8z" fill="#8b5e3c"/><path d="m45.929 55.929 5.071 5.071 2.828-2.828-5.071-5.072 2.122-2.121-9.179-2.135 1.824 7.968.006-.002-.006.002.284 1.238z" fill="#ff3051"/><path d="m36 7a1 1 0 0 0 .833-.445l.516-.774a3.993 3.993 0 0 1 3.327-1.781h1.324a1 1 0 0 0 0-2h-1.324a5.989 5.989 0 0 0 -4.992 2.672l-.516.773a1 1 0 0 0 .832 1.555z" fill="#006df0"/><path d="m22.8 3.98 1.784.357a3.01 3.01 0 0 1 2.416 2.942v.721a1 1 0 0 0 2 0v-.721a5.013 5.013 0 0 0 -4.02-4.9l-1.78-.359a1 1 0 0 0 -.4 1.96z" fill="#5eac24"/><path d="m49.692 9.264a3.006 3.006 0 0 1 2.4-1.333l-.176.491a3 3 0 0 0 2.026 3.991 3.036 3.036 0 0 0 .783.1 2.989 2.989 0 0 0 1.494-.4 3.038 3.038 0 0 0 1.42-1.9 3 3 0 0 0 -2.339-3.73l-.512-.1a3.99 3.99 0 0 1 3.065-2.283 1 1 0 1 0 -.286-1.98 5.99 5.99 0 0 0 -4.785 3.891l-.35-.066a.974.974 0 0 0 -.221-.017l-.19.007a5.005 5.005 0 0 0 -3.993 2.224 1 1 0 0 0 1.664 1.108zm4.1-.142.3-.832.839.158a.992.992 0 0 1 .661.451 1.054 1.054 0 0 1 .1.875 1 1 0 0 1 -.466.607 1.01 1.01 0 0 1 -.767.1.991.991 0 0 1 -.634-.516 1.008 1.008 0 0 1 -.035-.843z" fill="#ffcd00"/><path d="m3.147 4.1a3.992 3.992 0 0 1 3.066 2.29l-.512.1a3.009 3.009 0 0 0 -1.983 1.345 3.054 3.054 0 0 0 -.335 2.456 3 3 0 0 0 2.89 2.224 3.06 3.06 0 0 0 .791-.105 3 3 0 0 0 2.029-3.963l-.186-.517h.006a3.005 3.005 0 0 1 2.395 1.333 1 1 0 1 0 1.664-1.108 5 5 0 0 0 -3.991-2.223l-.192-.007a.912.912 0 0 0 -.221.017l-.35.066a5.99 5.99 0 0 0 -4.785-3.891 1 1 0 0 0 -.286 1.983zm4.073 5.048a1.006 1.006 0 0 1 -1.44 1.233 1.059 1.059 0 0 1 -.488-.692 1 1 0 0 1 .78-1.241l.84-.158z" fill="#ff5023"/><circle cx="34" cy="9" fill="#005ece" r="1"/><circle cx="45" cy="3" fill="#57a4ff" r="1"/><circle cx="20" cy="3" fill="#4e901e" r="1"/><circle cx="14" cy="11" fill="#d80027" r="1"/></g></svg>