<svg id="Capa_1" enable-background="new 0 0 512 512" height="512" viewBox="0 0 512 512" width="512" xmlns="http://www.w3.org/2000/svg"><g><path d="m512 141.379c0-74.23-60.833-134.62-135.606-134.62-60.443 0-94.275 28.618-121.355 73.676-27.349-46.071-60.02-73.676-119.573-73.676-74.697 0-135.466 60.39-135.466 134.62 0 65.369 31.562 130.818 102.337 212.216l11.812-10.271c24.383 19.838 28.708 29.602 62.272 41.885 28.434 10.405 58.402 16.48 88.604 18.371 26.199 1.64 52.408.153 76.936-9.88 10.525-4.305 20.354-10.236 28.744-17.933 9.324-8.554 15.633-19.771 21.109-31.022 6.312-12.969 11.707-28.443 22.787-38.208 5.868-5.172 12.918-8.438 19.426-12.495l14.183 10.407c42.924-58.5 63.79-111.84 63.79-163.07z" fill="#ff5c5c"/><path d="m376.394 6.759c-60.443 0-94.275 28.618-121.355 73.676-.026-.045-.054-.088-.08-.132v322.482c3.351.314 6.707.585 10.066.795 26.199 1.64 52.408.153 76.936-9.88 10.525-4.305 20.354-10.236 28.744-17.933 9.324-8.554 15.633-19.771 21.109-31.022 6.312-12.969 11.707-28.443 22.787-38.208 5.868-5.172 12.918-8.438 19.426-12.495l14.183 10.407c42.924-58.5 63.79-111.84 63.79-163.07 0-74.23-60.833-134.62-135.606-134.62z" fill="#ff3838"/><g><path d="m307.459 216.815h-37.5v-37.5h-30v37.5h-37.5v30h37.5v37.5h30v-37.5h37.5z" fill="#e4f3ff"/><path d="m269.959 216.815v-37.5h-15v105h15v-37.5h37.5v-30z" fill="#c3dafd"/><path d="m232.836 505.236c-89.197-.003-149.81-67.687-138.229-156.879l2.009-17.553c7.967-.886 19.258-3.087 35.594-3.087 89.785 0 149.902 68.031 138.367 156.864l-2.018 17.525-11.609 1.524c-13.458 1.767-24.215 1.61-24.114 1.606z" fill="#b6dc45"/><path d="m270.728 483.291-6.472-6.462.01-.01-72.166-72.054-21.196 21.23c15.605 15.584 71.325 71.232 78.556 78.454 6.408-.587 8.635-.998 13.658-1.627l6.056-6.066c.444-3.849 1.468-12.754 1.554-13.465z" fill="#98b939"/><path d="m256.438 502.539-11.608-1.524-2.223-19.279c-14.567-112.033 60.907-197.827 174.485-197.827 20.097 0 34.23 2.657 42.038 3.511l2.209 19.31c15.955 122.753-76.034 212.723-204.901 195.809z" fill="#73ca7a"/><path d="m342.782 382.21c-.317.317 6.977-6.968-100.12 99.995l2.169 18.81c10.208 1.315 13.1 1.787 19.063 2.384 9.911-9.899 88.785-88.674 100.085-99.96z" fill="#62a872"/></g></g></svg>